<svg xmlns="http://www.w3.org/2000/svg" version="1.1" xmlns:xlink="http://www.w3.org/1999/xlink" width="200" height="200"><svg xmlns="http://www.w3.org/2000/svg" version="1.1" xmlns:xlink="http://www.w3.org/1999/xlink" viewBox="0 0 200 200"><rect width="200" height="200" fill="url('#gradient')"></rect><defs><linearGradient id="SvgjsLinearGradient1001" gradientTransform="rotate(0 0.5 0.5)"><stop offset="0%" stop-color="#ffffff"></stop><stop offset="100%" stop-color="#ffffff"></stop></linearGradient></defs><g><g fill="#283855" transform="matrix(3.395796356842597,0,0,3.395796356842597,26.7166791253032,124.14836908711946)" stroke="#27b9f3" stroke-width="0.55"><path d="M9.17-4.81L12.58-4.81Q12.51-3.33 11.78-2.19Q11.04-1.05 9.72-0.43Q8.40 0.20 6.70 0.20L6.70 0.20Q3.90 0.20 2.29-1.63Q0.67-3.46 0.67-6.79L0.67-6.79L0.67-7.49Q0.67-9.58 1.40-11.15Q2.13-12.71 3.50-13.57Q4.86-14.42 6.66-14.42L6.66-14.42Q9.25-14.42 10.82-13.06Q12.39-11.70 12.61-9.31L12.61-9.31L9.19-9.31Q9.15-10.61 8.54-11.17Q7.92-11.74 6.66-11.74L6.66-11.74Q5.38-11.74 4.79-10.78Q4.19-9.82 4.16-7.72L4.16-7.72L4.16-6.72Q4.16-4.44 4.73-3.47Q5.30-2.49 6.70-2.49L6.70-2.49Q7.88-2.49 8.51-3.05Q9.13-3.60 9.17-4.81L9.17-4.81ZM14.20-14.22L18.70-14.22L21.88-4.33L25.04-14.22L29.55-14.22L29.55 0L26.11 0L26.11-3.32L26.45-10.12L23.01 0L20.74 0L17.29-10.13L17.63-3.32L17.63 0L14.20 0L14.20-14.22ZM39.06-3.78L39.06-3.78Q39.06-4.53 38.53-4.95Q38.00-5.37 36.66-5.82Q35.32-6.27 34.47-6.69L34.47-6.69Q31.71-8.05 31.71-10.42L31.71-10.42Q31.71-11.60 32.40-12.50Q33.09-13.41 34.35-13.91Q35.61-14.41 37.18-14.41L37.18-14.41Q38.71-14.41 39.93-13.87Q41.14-13.32 41.82-12.31Q42.49-11.30 42.49-10L42.49-10L39.07-10Q39.07-10.87 38.54-11.35Q38.01-11.83 37.10-11.83L37.10-11.83Q36.18-11.83 35.65-11.42Q35.12-11.02 35.12-10.39L35.12-10.39Q35.12-9.84 35.70-9.40Q36.29-8.96 37.76-8.48Q39.24-8.01 40.19-7.46L40.19-7.46Q42.49-6.13 42.49-3.80L42.49-3.80Q42.49-1.93 41.08-0.87Q39.68 0.20 37.23 0.20L37.23 0.20Q35.50 0.20 34.10-0.42Q32.70-1.04 31.99-2.12Q31.28-3.20 31.28-4.61L31.28-4.61L34.72-4.61Q34.72-3.47 35.31-2.92Q35.90-2.38 37.23-2.38L37.23-2.38Q38.08-2.38 38.57-2.75Q39.06-3.12 39.06-3.78Z"></path></g></g></svg><style>@media (prefers-color-scheme: light) { :root { filter: none; } }
@media (prefers-color-scheme: dark) { :root { filter: none; } }
</style></svg>